<svg xmlns="http://www.w3.org/2000/svg" width="1024" height="1024" viewBox="0 0 1024 1024">
 <defs>
  <pattern id="wood-a" width="128" height="64" patternUnits="userSpaceOnUse"><path fill="#807257" d="M0 0h128v64H0z"/><path fill="#746a52" d="M0 1h128v29H0z"/><path fill="#928064" d="M0 33h128v29H0z"/><path stroke="#504b39" d="M0 0h128M0 32h128M0 63h128M64 0v32M17 32v32"/><path stroke="#ac9371" opacity=".35" d="M8 12h44m18 11h47M30 46h81M6 55h64"/><path fill="#494c39" opacity=".22" d="M55 14h12v3H55zM98 46h21v4H98z"/></pattern>
  <pattern id="wood-b" width="64" height="128" patternUnits="userSpaceOnUse"><path fill="#686556" d="M0 0h64v128H0z"/><path fill="#757063" d="M0 0h29v128H0z"/><path fill="#857c68" d="M33 0h28v128H33z"/><path stroke="#444939" d="M0 0v128M32 0v128M63 0v128M0 43h32M32 93h32"/><path stroke="#a3997e" opacity=".35" d="M14 4v32M24 54v57M47 7v81M58 105v18"/><path fill="#464d3c" opacity=".3" d="M6 71h12v5H6zM36 28h17v5H36z"/></pattern>
  <pattern id="wood-c" width="128" height="64" patternUnits="userSpaceOnUse"><path fill="#8a7960" d="M0 0h128v64H0z"/><path fill="#706449" d="M0 1h128v20H0z"/><path fill="#9e8665" d="M0 24h128v17H0z"/><path fill="#7e7258" d="M0 44h128v19H0z"/><path stroke="#514a39" d="M0 0h128M0 23h128M0 43h128M0 63h128M86 0v23M34 23v20M110 43v21"/><path stroke="#c0a27a" opacity=".3" d="M4 14h63m42 18h14M9 57h84"/><path stroke="#474c3b" opacity=".4" d="M46 25l6 5-2 12M99 2l-5 6 2 12"/></pattern>
  <pattern id="wood-d" width="128" height="128" patternUnits="userSpaceOnUse"><path fill="#756b57" d="M0 0h128v128H0z"/><path fill="#8b7a5e" d="M0 0h64v64H0zm64 64h64v64H64z"/><path stroke="#484b39" d="M0 0h128M0 64h128M64 0v128M0 0v128M127 0v128M0 127h128M16 0v64m16-64v64m16-64v64M80 0v64m16-64v64m16-64v64M0 80h64M0 96h64M0 112h64M64 80h64M64 96h64M64 112h64"/><path fill="#535141" opacity=".3" d="M23 18h16v7H23zM91 83h29v4H91z"/></pattern>
  <pattern id="tile-a" width="64" height="64" patternUnits="userSpaceOnUse"><path fill="#b4b49f" d="M0 0h64v64H0z"/><path fill="#a4aa96" d="M2 2h28v28H2zm32 32h28v28H34z"/><path stroke="#7d8573" d="M0 0h64M0 32h64M32 0v64M63 0v64M0 63h64"/><path stroke="#ced0b7" opacity=".5" d="M4 6h22M36 39h22"/><path stroke="#686f5b" opacity=".35" d="M45 5l-4 10 7 9M6 39l14 9-5 10"/></pattern>
  <pattern id="tile-b" width="128" height="64" patternUnits="userSpaceOnUse"><path fill="#9aa99d" d="M0 0h128v64H0z"/><path fill="#afb8a6" d="M2 2h60v28H2zm64 32h62v30H64z"/><path stroke="#626f61" d="M0 0h128M0 32h128M0 63h128M64 0v32M32 32v32M96 32v32"/><path fill="#707b69" opacity=".25" d="M12 8h18v5H12zM66 40h25v6H66z"/></pattern>
  <pattern id="tile-c" width="64" height="64" patternUnits="userSpaceOnUse"><path fill="#b6aa90" d="M0 0h64v64H0z"/><path fill="#a69b83" d="M1 1h30v30H1zm32 32h31v31H32z"/><path stroke="#74785f" d="M0 0h64M0 32h64M32 0v64M63 0v64M0 63h64"/><path fill="#5c6850" opacity=".3" d="M0 29h14v6H0zM58 0h6v14h-6z"/><path stroke="#d2c9ae" opacity=".5" d="M5 7h22M37 38h22"/></pattern>
  <pattern id="tile-d" width="128" height="128" patternUnits="userSpaceOnUse"><path fill="#a5a897" d="M0 0h128v128H0z"/><path fill="#869182" d="M0 0h64v64H0zm64 64h64v64H64z"/><path stroke="#5c6c58" stroke-width="2" d="M0 0h128M0 64h128M64 0v128M0 0v128M127 0v128M0 127h128"/><path fill="#c4c5ac" opacity=".25" d="M72 12h37v7H72zM13 88h28v12H13z"/><path stroke="#6d7662" d="M89 14l-7 15 15 21M14 90l7 17 14 3"/></pattern>
  <pattern id="concrete-a" width="128" height="128" patternUnits="userSpaceOnUse"><path fill="#878c7e" d="M0 0h128v128H0z"/><path fill="#a0a193" opacity=".35" d="M4 5h48v5H4zM72 22h37v8H72zM16 61h27v4H16zM62 91h52v7H62zM102 64h16v6h-16z"/><path stroke="#5c6757" d="M0 0h128M0 0v128M12 0l8 24 17 12 4 30 22 11M20 24L3 44M41 66l-8 31 9 31M104 128l-7-26-23-20"/><path fill="#4e5d48" opacity=".3" d="M65 55l19-5 13 9-6 15-21-3z"/></pattern>
  <pattern id="concrete-b" width="128" height="128" patternUnits="userSpaceOnUse"><path fill="#747e73" d="M0 0h128v128H0z"/><path fill="#9a9e8f" opacity=".3" d="M6 16h52v8H6zM64 31h42v11H64zM13 77h34v6H13zM77 93h32v5H77z"/><path stroke="#4a5c4b" d="M0 0h128M0 0v128M94 0l-8 38-16 19 7 40-12 31M86 38l28 6 14 19M77 97l23 16"/><path fill="#464e40" opacity=".3" d="M9 34l17-8 21 9-3 24-18 12-19-11z"/><path fill="#b1ae8d" opacity=".2" d="M103 7h12v3h-12zM34 97h16v3H34z"/></pattern>
  <pattern id="concrete-c" width="128" height="128" patternUnits="userSpaceOnUse"><path fill="#999888" d="M0 0h128v128H0z"/><path fill="#b1ac98" opacity=".3" d="M12 16h44v5H12zM77 36h32v6H77zM19 81h60v7H19z"/><path stroke="#6d745f" d="M0 0h128M0 0v128M0 89l27-7 16-29 28-9 11-44M43 53l-4-28-16-7M71 44l31 20 26 4"/><path fill="#626c54" opacity=".35" d="M83 86l18 5 3 20-21 9-11-20z"/></pattern>
  <pattern id="concrete-d" width="128" height="128" patternUnits="userSpaceOnUse"><path fill="#68756b" d="M0 0h128v128H0z"/><path fill="#858b7a" d="M2 2h58v58H2zm64 64h62v62H64z"/><path stroke="#434f43" d="M0 0h128M0 64h128M64 0v128M0 0v128M127 0v128M0 127h128"/><path stroke="#a0a38b" opacity=".25" d="M7 12h33M72 82h43M9 95h33"/><path stroke="#434f43" d="M19 0l11 13-4 21 15 20M128 39l-22-6-14 11M89 128l-8-25 11-17"/></pattern>
  <pattern id="rubber-a" width="64" height="64" patternUnits="userSpaceOnUse"><path fill="#627462" d="M0 0h64v64H0z"/><path stroke="#445a48" d="M0 0h64M0 32h64M32 0v64M63 0v64M0 63h64"/><path stroke="#84927b" opacity=".4" d="M8 9l10 5m19 27 13 3M21 56h17"/></pattern>
  <pattern id="rubber-b" width="64" height="64" patternUnits="userSpaceOnUse"><path fill="#7e765f" d="M0 0h64v64H0z"/><path stroke="#5f6550" d="M0 0h64M0 32h64M32 0v64M63 0v64M0 63h64"/><path stroke="#a39a77" opacity=".4" d="M5 17h17M41 43l14 5M9 56h17"/></pattern>
  <pattern id="rubber-c" width="64" height="64" patternUnits="userSpaceOnUse"><path fill="#596c61" d="M0 0h64v64H0z"/><path stroke="#41564b" d="M0 0h64M0 32h64M32 0v64M63 0v64M0 63h64"/><path stroke="#9a9f84" opacity=".3" d="M12 8l11 7M41 44h17M18 59h12"/></pattern>
  <pattern id="rubber-d" width="64" height="64" patternUnits="userSpaceOnUse"><path fill="#7a8069" d="M0 0h64v64H0z"/><path stroke="#52644e" d="M0 0h64M0 32h64M32 0v64M63 0v64M0 63h64"/><path stroke="#aab093" opacity=".3" d="M7 16h17M39 47h14M14 53h14"/></pattern>
 </defs>
 <path fill="url(#wood-a)" d="M0 0h256v256H0z"/><path fill="url(#wood-b)" d="M256 0h256v256H256z"/><path fill="url(#wood-c)" d="M512 0h256v256H512z"/><path fill="url(#wood-d)" d="M768 0h256v256H768z"/>
 <path fill="url(#tile-a)" d="M0 256h256v256H0z"/><path fill="url(#tile-b)" d="M256 256h256v256H256z"/><path fill="url(#tile-c)" d="M512 256h256v256H512z"/><path fill="url(#tile-d)" d="M768 256h256v256H768z"/>
 <path fill="url(#concrete-a)" d="M0 512h256v256H0z"/><path fill="url(#concrete-b)" d="M256 512h256v256H256z"/><path fill="url(#concrete-c)" d="M512 512h256v256H512z"/><path fill="url(#concrete-d)" d="M768 512h256v256H768z"/>
 <path fill="url(#rubber-a)" d="M0 768h256v256H0z"/><path fill="url(#rubber-b)" d="M256 768h256v256H256z"/><path fill="url(#rubber-c)" d="M512 768h256v256H512z"/><path fill="url(#rubber-d)" d="M768 768h256v256H768z"/>
</svg>
